<svg xmlns="http://www.w3.org/2000/svg" width="29" height="25" fill="#fff" fill-rule="evenodd"><path d="M6.903.674l.047.044h.186L7.23.63h.093v.22L7.275.807l.047.044h.047v.044h.28v.265l.233.088v.044h-.093v.22l.093.088-.093.088v.088h.047v.044l-.047.044v.088l-.047.044h-.186l.093.088v.088l.093-.044.047.044.233-.044h.047l-.093.088v.22l.093.088-.093.044.047.044h-.14v.044l-.047.044h.14l.047.044h.093v.044-.044l-.14.265.047.044v.044h.14l.047.044-.047.044v.177l-.233.133-.047-.044.047.044v.044h.047l.186-.044v.044h-.047l-.047.044h-.326v.133l.233-.044.093-.044h.047l.047.265.093.133.047.088v.044h-.093l-.047.044h-.093v.044h.093l.047.044v.044l.047.265-.186.044-.093.044-.047.044v.088h.093l.093-.088h.093V4.7h.047v.133H8.16v.088l-.047.044h-.047v.044l.093.044h.093l.093-.044v.044l-.28.044v.044l.093.044.047.044v.088l.047.044.047.088v.044h.047v.044h-.093l-.093.044-.093.088v.133l.047-.044h.28L8.3 5.85v.088l-.093.088H8.16v.133h.093l.093-.044.047-.044.093.088v.088l-.047.044h-.047v.044l.047.044h.093v.044H8.44v.044l-.093.088H8.3v.133h.186l.047.044v.133h-.14l.047.088-.047.044V7.1l.186.044h.186v.044l-.047.044v.044l.047.044-.047.044V7.4l.14.3-.047.044v.177l-.093.044v.044h.047l.093.088v.133l-.047.044h-.047l-.047.088-.047.044v.044h.14l.047.044v.044h-.047v.044h.047v.177h-.093l-.047.044v.044l.093.044.047.044v.177l-.047.088.093.177H8.86l.093.088v.088l-.047.044v.354H8.86l.047.044v.22l.047.044H8.86l.093.088H9l-.28.265v.088l-.186.044-.047-.088-.047-.044h-.047v-.044h.047v-.088h-.047l-.093.044h-.093v.177h.047l-.047.044v.088h.186l-.047.044h-.093v.044h.14v-.088h.093v.133H8.44h.047v.088H8.44v.088l-.047.044v.088l.093.044.047.044v.044h-.047v.044h.047v.044l-.047.044-.093.044H8.3v.088h.047-.093v.088h.56l.047.3-.047.044v.133h.14l-.047.088v.133l-.093.044H8.72l-.186.044v.044h.233v.088h.047v-.044L9 12.7v.044h-.093l.047.044h.093v.044h-.093.14v.088l.047.088v.177l.047.088h-.233v.044H9v.044h.186l.047.22v.088l-.093.044-.047.044v.044h.28v-.133l.093-.088.093-.044.047-.044v-.177h.14l.14-.133v-.044h-.14v-.133h.093v-.177l-.047-.088v-.088h.093v-.22l.093-.22.14.088.047-.088v-.044h-.093v-.177l.047-.044v-.177l.047-.133h.047v-.088h-.047v-.088l.14-.133v-.044h-.047.093l.047-.044h-.186l.093-.088-.186-.265v-.044l.093-.044.093-.088v-.088l.233-.22v-.044h-.047l-.093.044-.047.044v.044-.177l.14-.133.047-.088v-.044l-.047-.044h-.047l-.047-.044v-.3l.093-.088h-.093l.14-.133v-.088l-.047-.044v-.177l.093-.088h-.14l.14-.133h.047V8.86h.047l.093-.088h-.233l.047-.044v-.044h-.093.093v-.088h.047v-.088h-.14l.093-.398v-.044l.047-.044h.047l-.093.044v-.3h.186V7.7l.047-.044h.093V7.62l-.047-.177h-.233V7.4l.093-.088v-.088h-.047V7.18h.093l.093-.044V7.1l-.047-.133-.047.044v-.044l.047-.044v-.088h-.093v-.088l.093-.088v-.044l-.14-.044.047-.044h.047V6.47h.047l.047.088h.047l.093-.088h.093v-.044h-.14l-.047-.044.14-.354-.093-.044.186-.088.093-.088h.093v-.044h.093l-.047-.088h.047l-.093-.044h-.093v-.044h.047v-.22l.093-.044.047.044h.047V5.32h.047v.044h.047v-.133l-.047-.044h-.14v-.044l.047.044h.093v-.044h.047l.093-.088h.047V5.01l.047-.044h.047l-.047-.044v-.088l-.047-.044h-.047.093v.088l.233-.22V4.7h.047l.047-.044.047.044h.047v-.044l.093-.088h.047l.047.044v.044l-.14.133h-.093l.047.044h.373l-.047-.088.047.044v.22h.14l-.047.044V5.1h.186l.047.044.047.088v.177h.186v.044h-.047v.044h.047v.133h.047l.093.044h.093l.047.088h-.047l-.047-.044v-.044h-.093l.047.088h-.047v.177h.233v.044l-.093.088-.186.044h-.186v.044h-.047v.088l-.093.088h-.047l-.047-.044V6.25h-.186v.133h.14l-.233.177h-.047v.044h-.186V6.47l.093-.044-.047-.044v-.088l.047-.044h.233V6.16l-.093-.044h-.186v-.044h-.093l-.047-.044.093-.088h.047v-.044H11.9l-.047.22.047.044-.14.133v.044l.14-.044v.088l-.233.177v.044h.093v.044l-.14.133-.186.088.14.133.047.088v.088l-.047.044v.044l-.047.133v.044h.047l-.047.044h-.047.047v.398h-.28l.14.044h.14l-.047.265h.047l-.093.177-.047.044h-.047l-.14.044v.044h-.093v.177h.186V8.64l.093-.088h.093v.177l-.047.044v.265l-.047.088h-.14v.044h.093v.044h-.047l-.047.044h.093l-.14.133-.047.265V9.7l.047.044h.093v.177l-.093.044-.047.044h.047l.047.044v.177l-.233.22h.14v-.044l-.093.088v.044l-.14.044.047.044h.14v.177h-.14l-.14.044.093.044h.14v.044h-.047v.044h.14v.133h-.047.047l-.047.22-.047.133-.047.044h.047v.044l-.14.133v.044l-.093.044h-.233l.047.088.047.044v-.044l.047.044h.093v.044h-.14l.047.044v.088l-.14.53.047.088v.044h.093v.044l-.14.177-.14.133h-.047l-.093.088v.044h.233l.047.044v.044l-.093.044-.047.044-.093.177v.133l-.14.133v.265h.14l-.047.044h-.047v.044h-.047l-.14.133.047.088-.14.044v.044l.093.088h-.047v.044h.093v.133l.047.044h-.14v.044h.047l-.093.044-.047.044.047.044-.326.133-.093.088v.177h-.186l-.14.088-.093.044h-.047l-.047-.088H9l-.14.133h-.047v.044-.044l.047-.044v-.044h.047l-.047-.044.047-.044v-.088H8.72v.22l-.047.044.047-.177.047-.088v-.088H8.72l-.093.088-.047.088h-.093v-.133l.093-.088V15.1l-.14.044h-.186V15.1l.093-.088v-.044H8.3v-.177l.047-.088-.047-.044h-.047v-.265H8.3l.093-.044h.093v-.265H8.44l-.186.133-.047.044H8.16v-.133l.093-.088.093-.044h.14v-.088h-.233v-.265l.093-.088h-.093v-.088H8.16v-.044l.047-.044v-.133h.047l-.093-.177v-.133l.186-.088h.093v-.044H8.3l-.186.088v-.22h.047v-.133l-.047-.044-.14-.177v-.398l.093-.088v-.044l.047-.044h-.047l-.047.044h-.14v-.354l-.047-.044v-.398l.047-.044v-.177l-.047-.177v-.133l-.047-.044v-.265l.047-.177h-.093v-.3h-.047V9.48l-.047-.044h-.093V9.39l.186-.133h-.093V9.08h.047l.093-.044h.093v-.044h-.186V8.95l.047-.044-.047-.044v-.044l.047-.177h-.093l.093-.3v-.133h-.047v-.044h.093v-.088l.047-.088v-.088h-.14v-.044h.047v-.044h-.047v-.044l.047-.044V7.62l.047-.044h.047v-.044l-.047-.088h-.14l.093-.088h.047V7.31h-.047l.093-.044v-.044l-.093.044h-.047v-.044l.047-.044v-.177l.047-.088v-.088h-.14V6.78h-.14l.186-.177V6.56l-.093.044h-.047v-.177h.047v-.044h-.047v-.265h-.14l-.093-.088v-.133l.233-.177-.047-.088-.047.044h-.047v-.088l.047-.133v-.3l-.14-.133-.047-.133.14-.044.047-.133h-.047v-.088h.047v-.088l.093-.088v-.088l-.093.088h-.14V4.39l.047-.044v-.088l.047-.088v-.22h-.14l.047-.044v-.133h-.047v-.044h.14L7.37 3.64v-.044l-.047-.088h-.14v-.133l.047-.044V3.24h-.093v-.044h-.093l-.047-.177-.093-.044-.047-.044h-.093v-.088l-.093-.088h-.093l.047.088h-.14v.088h-.047l-.047.044-.093.044h-.093v.088h.047l.093-.044.047-.044h-.047v.133h-.047l-.14.177v.22l.047.044v.088h.047-.233l-.047.177v.044h.186v.044l-.14.133-.093.044v.088l-.093.044v.044l-.047.044v.133l.14-.088h.093l-.047.044-.047.088-.047.044v.044l.047.044V4.7l-.047.044h-.093v.177l.047.088h-.093l-.047.044h.047l-.093.088v.133l.14.133-.093.088-.047.177H5.55l.047.088.047.044h.047v.044l-.14.133h-.047l.186.177-.186.177v.177l-.047.088v.088h.093v.044h-.047l-.047.044v.133h.093l-.047.044.047.044h-.093l-.047.044h-.047l-.047.044v.088h.047v.044H5.27v.044h.186v.088L5.41 7.4l-.047.088-.14.133v.044h.093l.047.044-.093.088v.177h.047v.044h-.14l.047.088v.088l-.093.044v.22l.093.044.047.044v.044l-.047.044v.044l-.047.088-.14.133v.044h.14l-.093.177-.047.177h.093l.047.044v.044l-.047.044v.088h-.047l-.047-.044-.047.044v.133h.28l.14.133v.088h-.047l-.047-.044h-.14l.14.133h.093v.088h-.186v.044H5.13l.14-.044-.093.088v.088l-.186.088v.088h.14v.044h.047l.093-.044h.047v.044H5.27l-.093.044-.047.044v.044h-.28v.088l.047.044h.326l-.047.044H5.13l-.047.044-.093.177h.14v.044h-.047v.044l-.093.088v.22h.047l-.047.044v.133l-.047.044v.088h.047v.044l-.186.088v.088h.047v-.088h.047l.093.044v.088l-.093.088v.088h.093v.044l-.093.088-.093.044v.177l.093-.044v.088l-.186.177h-.047v.044l-.093.265-.047.22h-.14l-.093.088-.047.088v.044l.047.044v.133l-.186.044v-.044.044h-.093v.044h-.047v.044h-.28v-.044l-.047-.044-.047.177v-.044h.047v-.088l.28-.265h.047v-.044h-.14v-.177l.047-.044v-.044l-.093-.044h-.047v-.044h-.047l-.047.133-.047.044H3.5l.14-.044h.047l-.093.044-.093-.088v-.088l.047-.044h.093l-.047-.088.047-.088v-.088h-.047v-.265l.093-.088v-.088l.047-.088v-.088h.093V12.1h.047v.177l-.047.044h-.093v.044l.047.044v.133l-.093.177v.265h.047l.093-.088h.047V12.7l.047-.044h.14l.093-.177H4.06v-.133l-.093-.265-.093.044v.044h-.186V12.1l-.047-.044.047-.133.047-.088.047-.044h.047v-.044l-.047-.044v-.133l.047-.088v-.088h.047l-.047-.044.233-.354.047-.044.047-.177-.047-.044.047-.044v-.133H4.2v-.177l.093-.088V10.1l.047-.133v-.088h.047l-.047-.22h-.047V9.48l-.047-.044.047-.044v-.088h-.047v-.044l.047-.088.047-.044V9.08l-.093-.088V8.55l.047-.044h.14v-.088l.047-.088h-.047L4.34 8.24v-.044l.093-.044v-.088H4.34v-.088h.14l.047-.044v-.088H4.48l.047-.133.047-.044V7.62H4.48v-.044h.093L4.525 7.4V7.31h-.093v-.3h.047v-.044l.093-.044h.047V6.87h-.326l.233-.133.093-.177.047-.044h.186l.047.044.093.044.047.044v.044h.047V6.56h.047v-.044h-.047l-.093-.088h-.047l-.186.044h-.28l.093-.044h.093v-.044H4.62l.14-.133v-.044l-.047-.088H4.62l-.047-.088h.047l.047-.088v-.044H4.62v-.133l.047.044h.093v-.22h.093l.14-.044-.093.044v-.044l.047-.044h.093v-.044h-.093l-.047-.22-.047-.044h-.186v-.044h.186l.047-.088v-.088l.093-.088h.093v-.22h-.233l.093-.088h.14l-.047-.044V4.48l.093-.088v-.133h-.093l-.047.133h-.093v-.044l.047-.044v-.177h.047l.047-.044h.093l-.093-.088h-.047V3.95h.047l.047.044v.133h.047l.047-.044v-.088L5.13 3.86l-.047-.044.047-.044.093-.044.047.044h.047v-.044l.186-.177-.047-.088v-.044h-.233v-.044l.047-.044h.093l.047-.044V3.24h-.047.14l.093-.088V3.02l.047-.044v-.133l.047-.044h.093l.047-.044.093-.133v-.088h-.14v.044l-.093.044h-.093v-.044l.047-.044v-.044l.047.044h.047v-.044h-.093v-.044h.047l.093-.044h.047l.186-.265v-.133l.093-.088h.047V1.78h-.093l.047-.088.047-.044.14-.088.093-.177h.093l-.047-.044h.14l.093-.044.047-.044V1.16H6.67h.047v-.133h.14V.85l.047-.177m.792.398h.047v.044l-.047-.044M5.458 2.975h0v.088h-.093l.093-.088m-.373.53h.14l-.047.133-.047.088h-.047v-.22m1.212.044h0l-.047.044h-.093l.047-.044h.093m5.407 1.018h0-.047.047m-6.945.796h.093-.186V5.32l.093.044m6.852-.62h0l-.047.044h-.093v-.044h.14m-6.992.752h0l.047.044v.044l-.047.044h-.093l.047-.044h.047v-.088m8.157-.53h.093v.044l-.093.088-.093.044.047-.044.047-.133m2.564-.088h.14v.177h.093l.093-.044.047-.044h.093l.047-.044v-.044h.047v.044l-.093.044-.047.044h.093V5.1l.233.044.047.044h.047v.088h-.047.14l.093.044h-.047l-.047.088v.044h-.047V5.41l-.093.044-.14.22.093.088h.466l-.093.044.093.088h.14v.133l-.047.088v.133l.047.044v.044l-.14-.044.14.133v.044h.047l.047.088h-.093l-.047.044v.088h-.047v.044l.14-.044.047-.044v-.044h.047v.177l-.093.088h-.093v.044l.14.044h.186V7.1h-.047v.044l.047.044h.14l.093-.044V7.1l.047-.044v-.044l.047-.044h.093l-.047-.088v-.044l.047-.044v-.044h.047l.047-.177.047-.088v-.088l.093-.088h.047V6.16h.14l.047.044h.093v-.088l-.186-.044v-.088l.093-.133.093-.088h.14v-.088h-.186V5.63l.047-.088.047-.044.047-.088V5.32l.047-.044v-.088l.047-.088.047-.044.093-.133.047-.088.28-.133.093.088v.044l-.047.044v.088h.28l.047-.044h.047v.044h.047l-.047.044-.047-.044h-.28l.047.044h.047v-.044h.233l.233-.044.047-.044h.093l-.093.044-.047.044.047.044.14-.044h.186v.044l-.047.044h-.093l.047.044v.044h-.093V5.01h-.047l-.047.044v.088H19.3V5.1h-.14v.133h.186l.093-.044h.14l.093-.088h.093v.044h-.093v.044l-.14.044-.047.044h-.093l.093.044h.093l.047-.044h.14l.093-.088h.28l.093.487-.047.044v.044h-.093l-.047.044v.088h.186v.044l.047-.044V5.85h.233l-.14.044-.14.133h-.093v.044l-.047.044v.044-.044h.466v.044h.186l.047.044.56.088h.326l.093.22h-.047l-.093.044h-.093v.044l.093.088h.186l.047-.044h.093l.093-.088h.186v.177h.047l.28-.133h.093l.093-.088h.093v.044l.047.088h.233l.047.044h.093v-.044l-.093.088v.088h.093v.044h.14l.047-.044-.093-.044h-.047.047v.088h.14V6.78l.093-.044v.044h.093v.044h.047l.047-.044.047.044v.044l.14-.044.093-.044.047-.044h.047v.088l-.093.088v.088l.047.044h.047V7.1v-.044h.047v.088h.14l-.047.044v.088l.28-.265h-.186l-.047.044-.093.044h-.093v-.044l-.233.044v.088-.133l-.093-.044h-.093l.047.044v.088h-.047l-.047-.044h-.093l-.047.044h-.28v-.088l.047-.044h-.047v.133h-.14V7.1h-.047l-.326.177v-.133h-.186l-.047.044h-.047l.047.044v.044h-.093l-.047-.044-.14-.177.047.088-.466.044-.14.044-.186.044-.093.044h-.14l-.14.044v-.088l-.14.088V7.31l-.28.088v-.044h-.047.047l-.047-.044h-.326l.047-.044v-.044h.047V7.18h-.093l-.093-.177h-.093l.047-.044v-.044h.093l-.047-.088h.047l-.047-.044-.186.088h-.14v-.133l.047-.044H20v-.044.088l.047-.088v-.044h-.093l-.093.044.047-.133-.047.044v.088h-.047l-.047.044h-.14l-.047-.044h.093l.093-.088h.047l-.047-.044h.093v-.088h-.28l-.047.044h-.047v-.22l-.14.088-.047.044h-.047v-.177h-.093V6.16h-.093l.047-.044v-.044h-.28v-.044h-.047v-.044h.14l-.047-.044h-.28v.044l-.326-.3v.044l-.093.088v.088l-.047.044v.133h-.186l.047.044h.14l-.14.088v.088l-.093.177v.088h-.093v.044h.047l-.047.044h-.093v.133l-.047.22-.047.088h-.093v.088l.047.088-.093.088-.047.088v.133h-.093v.044h-.047l-.047-.044h-.186v.044l-.047-.044-.047.044-.093.044h-.186V7.62l-.047.044-.047-.044h-.093l.14-.177h-.186V7.4l-.093-.088h-.14l-.047-.22.093-.088.047-.088.047-.044v-.044h-.326v.088h-.186l.14-.133v-.044l-.047-.044h-.14l-.047-.044h-.047.093v-.044l.186-.177v-.044h-.14l-.093-.044h-.186l.047-.044h-.093l-.047.088v.088h-.047l-.047.044v-.088l-.14-.133.047-.088.047-.044.093-.133-.093-.088h-.093l-.047.044v.133l-.513.088-.047-.133h-.047l.047-.044h.14v-.044l-.093-.088V5.85l.047-.044v-.044h.14l.047-.044v-.044h-.093v-.22l.047-.044.047-.088.14-.133h.326l-.047-.3M4.48 6.16h.093v.044h-.047L4.48 6.16m14.915-1.24v.044h-.047l.047-.044m-.233.044h0m.466.177h0l.047.044h-.047v-.044m-3.216.354h0l.047.044-.047-.044m-.093.088h0m-4.195.398h0v.044-.044m1.165.177h0v.044h-.047l.047-.044m6.665-.62h0l-.047.044.047-.044m-6.852.664l.14.044h.093v-.044h-.047.14v.177h-.093l-.093-.044h-.047v.044h.093l-.047.088-.047.044.047.044h.186v-.044h.093v.088h-.093l.093.088v.044l-.14-.044h-.14v.044h.047-.14l.14.044.047.044v.044l.186.088-.047.044h-.047v.044h.047l-.093.044-.047.044h-.047.093l.047-.044h.093v.044l-.14.133-.14.088h-.047v.133h.186l-.047.044.047.044v.044h-.14l-.047.044V7.7l.093.044.186-.044h.14l.047.088-.186.044h-.047l-.093.088.186.398v.044h.326l.047-.088.047-.044h.093l.047-.044v-.088l-.047.044h-.093v-.044l.047-.265.093-.133v-.487h.047V7.1l.093-.088v-.044h-.047.047v-.044h.14l.14.133h.093l-.047.088-.047.044.047.044-.093.044.093.044h.047l.047-.133.047-.088v-.044h.14l-.047-.088h.28v-.044l.14-.133h.047v-.044h.047l.047-.044v-.088h.047v.044l.093.088h.093l-.047.22-.047.044h-.093l-.047.044h-.047v.177h-.186v.088l.093-.044.047.088-.047.044h.047v.133h-.093v.044h.093v.044l-.093.044h-.047l-.047-.044v-.088l-.233-.088.093.088h.093v.088h-.047.093V7.7h-.14v.044h.14l-.093.044h-.14v.133h.093v.044h-.14v.3l-.047.044h-.093l-.093.088-.093.044h-.233v.044h.28v.133l-.047.044h-.047v.177h-.093l-.14.133h-.093V8.95h-.14v.088h-.047v-.133h-.233v.044l-.093.088h-.047.047l-.047-.044V8.95l.047.044.093-.088h.047V8.86h-.186l-.186.044h.047v.088h-.093v.044h-.093l.093-.177.047-.177h-.047l-.186.088h-.14l-.047-.088v-.088l-.047-.044h.186v-.044h.047v-.044h.047l.14-.177h-.186l-.047.044h-.047v.044l-.093.044-.047-.044h-.047l.093-.177h.233l.093-.088v-.044l-.047-.044h-.14l-.14-.133v-.044l.047-.044v-.044l-.14-.044h-.28v-.044l.093-.044h.047v-.044h.233l.047-.044v-.088h-.047V7.4h.093V7.31l-.093.044h-.093V7.31h-.14v-.044l.093-.088h.093l-.14-.044h-.186l-.093.044h-.047v-.044l.047-.044h.093v-.044h-.28v-.088h.326v.044h-.093.093v-.044l.233.088.093-.088V6.87h-.233l-.047-.044-.186-.088h.326v-.088h.047l.093.088.047.177h-.047v.044h.047l.14.044v-.088l.047-.044V6.78l-.047-.088-.047-.044h-.093v-.044h.047l.093-.398m-1.025.177h0m6.106-.53h0l.047.044h-.047V5.85m-4.8.53h.047v.044l-.047-.044m4.708-.398h0l.047.044h-.093l.047-.044m-3.542.3h.14v.044l-.093.088.047.044h-.047v.088l-.093.088h-.047v.044h-.186v-.044l.047-.044h.047l-.047.044h.28l.047-.044-.047-.044h-.14v-.177l.093-.088m.466-.044h0m-1.585.177h0m1.538-.088h0l.047.044h.047l.047.044h-.233l.047-.044-.047-.044h.093m5.593-.442h0l.047.044h-.047v-.044m-.047.044h0l.047.044-.047-.044m-9.648.885h0m9.928-.885h0l.047.088-.047-.088m-5.873.62h0m5.5-.442h0v.044h-.047l.047-.044m-6.852.708h0l.047.044v.044h-.093v.044-.044l.047-.088m1.445-.088h.047l-.093.133-.047.044h-.047v.088h-.093v-.177h.093V6.78h.047l.093-.044m-.466.088h0m-.047.044l.047.044h.093v.044l-.14.044V6.87m-2.33.3h0v.044-.044m7.784-.708h0l.047.044-.047-.044m-7.55.708h0m-.047.044h0m3.87-.354h0l.047.044-.047-.044m-1.585.177h0l-.047.044.047-.044m-2.19.354h0-.093.093m-1.864.177h0l.047.044-.047-.044m2.983-.265h0m-1.258.133h0m0 .044h0m11.7-.973h.093v.044h-.047l-.047-.044m.7.044h0l.047.088h-.047V6.56m.28 0h0l.047.044-.047-.044m.093 0h0l.047.044-.047-.044.047.044h-.047V6.56M5.178 8.373v.044-.044m8.53-.752h0l.047.044h-.047V7.62m-1.258.133h.047v.044l-.047-.044m1.212-.088h.047V7.7l-.047-.044V7.7v-.044m11.093-.973l.047.044v.088h-.14V6.78l.093-.088m.186 0h.093l.093.088h.093l-.093.088v.133h-.047l-.047-.133.093-.088v-.044l-.093-.088-.093.044m-8.483.796h.047v.044l-.047-.044m8.67-.796h0l.047.044-.047-.044m.233 0h0l.047.044-.047-.044.047-.044-.047.044m-12.864 1.15h.093v.044l-.093-.044m1.165-.088h0m-.932.133h0l-.14.133h-.14l-.047-.044.047-.044h.047v.044h.047l.186-.088M25.267 6.78h0l.047.044-.047-.044m.093.22h.14l-.14.044v-.044m-.606.088h0l.047.088h-.047V7.1M5.27 8.86h0v.044-.044m7.318-.664h.047l.093.088v.044h-.093v-.044l-.047-.044v-.044m-2.144.3h0l.047.044v.088l-.047-.044v-.088m-5.22.53h0l.047.088h-.047v-.088m7.597-.22h0m.093.22h0m.373.177h.047l-.047.044h-.047l.047-.044m-2.424 2.743h0m-.28 1.106h0l.047.044h-.047v-.044m-6.525.796h.093v.044l-.093-.044m-.093.088h0m6.292-.044h.047v.044l-.047-.044m-.14.487h.047v.044l-.047.044v-.088m-.326.62h0l-.047.044.047-.044" fill-rule="nonzero"/><path d="M6.83 24.523v-.226h-.047c-.624 0-.654-.127-.666-.6l-.034-1.066-.05-2.166c0-.2.032-.3.106-.368s.218-.07.43-.07h.05v-.275l-.622.015-.567-.014-.013.03L4.25 22.32l-.556 1.175-1.73-3.742-.447.015-.74-.015v.277H.82c.218 0 .344.028.42.097s.108.196.108.43l-.044 1.938-.027.84c-.026.904-.32.976-.732.976H.5v.274l.916-.014.86.014V24.3H2.23c-.244 0-.403-.017-.5-.104-.087-.08-.122-.24-.122-.574l.007-.426.05-2.285.177.362 1.568 3.36h.196l.01-.034.252-.665 1.47-3.164.044 3.055c0 .293-.07.374-.146.418-.1.054-.258.055-.476.055H4.7v.274l1.003-.014 1.126.014-.004-.047.005-.012zm3.47-2.348c-.228-.216-.523-.287-.74-.3.406-.215.814-.62.814-1.168 0-.588-.416-1-.988-1-.605 0-.96.362-1.297.762l-.026.03.155.202.037-.038c.256-.266.463-.452.8-.452a.68.68 0 0 1 .52.217.83.83 0 0 1 .193.56c0 .605-.554.97-1.102 1.016l-.044.003v.27l.05-.004c.462-.03.8.057 1.007.258.17.166.258.42.258.75 0 .638-.406 1.085-.987 1.085-.397 0-.543-.205-.66-.37-.076-.107-.142-.2-.256-.2a.25.25 0 0 0-.174.075c-.052.05-.082.117-.082.2 0 .246.415.617 1.04.617 1.32 0 1.812-1.024 1.812-1.668 0-.35-.107-.63-.32-.83v-.015zm3.95-1.7c0-.48-.252-.486-.602-.494v-.178l.912.014.938-.014v.178c-.35.007-.6.014-.6.494v3.44c0 .48.25.486.6.493v.177c-.317 0-.6-.014-.892-.014l-.96.014v-.178c.35-.007.602-.014.602-.493v-3.44l.002.001zm2.366 1.9c0-.254-.073-.322-.383-.452v-.132c.296-.094.587-.204.872-.33.02 0 .04.014.04.07v.445c.377-.28.7-.514 1.143-.514.562 0 .76.425.76.96V24.2c0 .226.145.226.33.226h.12v.18c-.23 0-.463-.014-.7-.014l-.714.014v-.178h.12c.185 0 .317 0 .317-.226v-1.787c0-.4-.23-.582-.608-.582-.2 0-.55.178-.767.33v2.028c0 .226.145.226.33.226h.12v.177c-.23 0-.463-.014-.7-.014l-.714.014v-.178h.117c.185 0 .317 0 .317-.226l.002-1.815-.002.01zm6.187 1.63c0 .28.066.28.324.28h.113v.136h-.007c-.1.02-.278.075-.47.136l-.416.136c-.066 0-.073-.103-.073-.185v-.316h-.013c-.238.254-.6.5-1 .5-.793 0-1.23-.72-1.23-1.487 0-.925.72-1.747 1.633-1.747a1.57 1.57 0 0 1 .62.123v-1.216c0-.445-.1-.46-.35-.534v-.1a4.17 4.17 0 0 0 .681-.294.67.67 0 0 1 .146-.075c.04 0 .053.04.053.096l-.001 4.55-.01-.003zm-.53-1.692c0-.507-.4-.63-.7-.63-.47 0-.985.362-.985 1.288 0 .753.443 1.315 1.047 1.315.198 0 .64-.15.64-.404l-.002-1.57zm1.555 2.104h.126c.185 0 .317 0 .317-.226v-1.866c0-.3-.1-.343-.344-.48v-.108l.707-.247a.23.23 0 0 1 .12-.034c.033 0 .047.04.047.096v2.63c0 .226.145.226.33.226h.113v.176c-.225 0-.456-.014-.694-.014l-.72.014v-.177l-.002.01zm.707-4.008c-.12.005-.23-.058-.3-.164s-.06-.237 0-.343.172-.17.3-.164a.33.33 0 0 1 .324.33c.004.184-.144.34-.324.343h0zm4.06 3.92c-.185.178-.4.37-.654.37-.27 0-.397-.26-.4-.507-.3.295-.6.507-1.018.507s-.714-.3-.714-.664c.026-.548.297-.65 1.725-1.158v-.45c0-.383-.218-.588-.64-.588-.3 0-.5.17-.503.48 0 .192-.2.287-.37.287-.034 0-.066-.014-.088-.04s-.034-.06-.03-.095c0-.362.297-.534.76-.78.232-.123.344-.22.595-.22.297 0 .806.2.806.576v1.898c0 .28.092.4.238.4.094-.001.183-.043.245-.117l.06.112-.012-.01zm-1.07-1.254c-.337.136-1.197.295-1.197.8 0 .27.2.5.47.493.3 0 .5-.198.727-.397v-.896z"/></svg>