<svg xmlns="http://www.w3.org/2000/svg" viewBox="0 0 125.5 35.6" fill="#fff"><path d="M8.5.6h0m-.4.1l.1.1h.4l.2-.2H9v.5L8.9 1l.1.1h.1v.1h.6v.6l.5.2v.1H10v.5l.2.2-.2.2v.2h.1v.1l-.1.1v.2l-.1.1h-.4l.2.2v.2l.2-.1.1.1.5-.1h.1l-.2.2v.5l.2.2-.2.1.1.1h-.3v.1l-.1.1h.3l.1.1h.2l-.3.6.1.1v.1h.3l.1.1-.1.1v.4l-.5.3-.1-.1.1.1v.1h.1l.4-.1v.1h-.1l-.1.1h-.7v.3l.5-.1.2-.1h.1l.1.6.2.3.1.2v.1h-.2l-.1.1h-.2v.1h.2l.1.1V9l.1.6-.4.1-.2.1-.1.1v.2h.2l.2-.2h.2v-.1h.1v.3h-.2v.2l-.1.1h-.1v.1l.2.1h.2l.2-.1v.1l-.6.1v.1l.2.1.1.1v.2l.1.1.1.2v.1h.1v.1H11l-.2.1-.2.2v.3l.1-.1h.6l-.2.2v.2l-.2.2h-.1v.3h.2l.2-.1.1-.1.2.2v.2l-.1.1h-.1v.1l.1.1h.2v.1h-.2v.1l-.2.2h-.1v.3h.4l.1.1v.3h-.3l.1.2-.1.1v.2l.4.1h.4v.1l-.1.1v.1l.1.1-.1.1v.1l.3.7-.1.1v.4l-.2.1v.1h.1l.2.2v.3l-.1.1h-.1l-.1.2-.1.1v.1h.3l.1.1v.1h-.1v.1h.1v.4h-.2l-.1.1v.1l.2.1.1.1v.4l-.1.2.2.4h-.1l.2.2v.2l-.1.1v.8h-.1l.1.1v.5l.1.1h-.2l.2.2h.1l-.6.6v.2l-.4.1-.1-.2-.1-.1h-.1v-.1h.1v-.2h-.1l-.2.1h-.2v.4h.1l-.1.1v.2h.4l-.1.1H11v.1h.3v-.2h.2v.3h-.1.1v.2h-.1v.2l-.1.1v.2l.2.1.1.1v.1h-.1v.1h.1v.1l-.1.1-.2.1h-.2v.2h.1-.2v.2h1.2l.1.7-.1.1v.3h.3l-.1.2v.3l-.2.1H12l-.4.1v.1h.5v.2h.1v-.1l.4.1v.1h-.2l.1.1h.2v.1h-.2.3v.2l.1.2v.4l.1.2h-.5v.1h.1v.1h.4l.1.5v.2l-.2.1-.1.1v.1h.6v-.3l.2-.2.2-.1.1-.1v-.4h.3l.3-.3v-.1h-.3v-.3h.2v-.4l-.1-.2v-.2h.2v-.5l.2-.5.3.2.1-.2v-.1h-.2v-.4l.1-.1v-.4l.1-.3h.1v-.2h-.1v-.2l.3-.3v-.1h-.1.2l.1-.1h-.4l.2-.2-.4-.6v-.1l.2-.1.2-.2v-.2l.5-.5v-.1h-.1l-.2.1-.1.1v.1-.4l.3-.3.1-.2v-.1l-.1-.1h-.1l-.1-.1V21l.2-.2h-.2l.3-.3v-.2l-.1-.1v-.4l.2-.2h-.3l.3-.3h.1v-.1h.1l.2-.2h-.5l.1-.1v-.3h.1v-.2h-.3l.2-.9v-.1l.1-.1h.1l-.2.1v-.7h.4v-.1l.1-.1h.2v-.1l-.1-.4h-.5v-.1l.2-.2v-.2h-.1v-.1h.2l.2-.1v-.1l-.1-.3-.1.1v-.1l.1-.1v-.2h-.2v-.2l.2-.2v-.1l-.3-.1.1-.1h.1v-.1h.1l.1.2h.1l.2-.2h.2v-.1h-.3l-.1-.1.3-.8-.2-.1.4-.2.2-.2h.2v-.1h.2l-.1-.2h.1l-.2-.1h-.2v-.1h.1v-.5l.2-.1.1.1h.1v-.1h.1v.1h.1V11l-.1-.1h-.3v-.1l.1.1h.2v-.1h.1l.2-.2h.1v-.1l.1-.1h.1l-.1-.1v-.2l-.1-.1h-.1.2v.2l.5-.5v.1h.1l.1-.1.1.1h.1v-.1l.2-.2h.1l.1.1v.1l-.3.3h-.2l.1.1h.8l-.1-.2.1.1v.5h.3l-.1.1v.1h.4l.1.1.1.2v.4h.4v.1h-.1v.1h.1v.3h.1l.2.1h.2l.1.2h-.1l-.1-.1V12h-.2l.1.2h-.1v.4h.5v.1l-.2.2-.4.1h-.4v.1H21v.2l-.2.2h-.1l-.1-.1v-.1h-.4v.3h.3l-.5.4h-.1v.1h-.4v-.3l.2-.1-.1-.1v-.2l.1-.1h.5v-.2L20 13h-.4v-.1h-.2l-.1-.1.2-.2h.1v-.1h-.8l-.1.5.1.1-.3.3v.1l.3-.1v.2l-.5.4v.1h.2v.1l-.3.3-.4.2.3.3.1.2v.2l-.1.1v.1l-.1.3v.1h.1l-.1.1h-.1.1v.9h-.6l.3.1h.3l-.1.6h.1l-.2.4-.1.1h-.1l-.3.1v.1h-.2v.4h.4v-.1l.2-.2h.2v.4l-.1.1v.6l-.1.2h-.3v.1h.2v.1h-.1l-.1.1h.2l-.3.3-.1.6v.1l.1.1h.2v.4l-.2.1-.1.1h.1l.1.1v.4l-.5.5h.3v-.1l-.2.2v.1l-.3.1.1.1h.3v.4h-.3l-.3.1.2.1h.3v.1h-.1v.1h.3v.3h-.1.1l-.1.5-.1.3-.1.1h.1v.1l-.3.3v.1l-.2.1H16l.1.2.1.1V26l.1.1h.2v.1h-.3l.1.1v.2l-.3 1.2.1.2v.1h.2v.1l-.3.4-.3.3h-.1l-.2.2v.1h.5l.1.1v.1l-.2.1-.1.1-.2.4v.3l-.3.3v.6h.3l-.1.1h-.1v.1h-.1l-.3.3.1.2-.3.1v.1l.2.2h-.1v.1h.2v.3l.1.1h-.3v.1h.1l-.2.1-.1.1.1.1-.7.3-.2.2v.4h-.4l-.3.2-.2.1h-.1l-.1-.2h-.1l-.3.3h-.1v.1-.1l.1-.1v-.1h.1l-.1-.1.1-.1v-.2H12v.5l-.1.1.1-.4.1-.2v-.2H12l-.2.2-.1.2h-.2v-.3l.2-.2v-.2l-.3.1H11v-.1l.2-.2V33h-.1v-.4l.1-.2-.1-.1H11v-.6h.1l.2-.1h.2V31h-.1l-.4.3-.1.1h-.1v-.3l.2-.2.2-.1h.3v-.2H11V30l.2-.2H11v-.2h-.2v-.1l.1-.1v-.3h.1l-.2-.4v-.3l.4-.2h.2v-.1h-.3l-.4.2v-.5h.1v-.3l-.1-.1-.3-.4v-.9l.2-.2v-.1l.1-.1h-.1l-.1.1h-.3V25l-.1-.1V24l.1-.1v-.4l-.1-.4v-.3l-.1-.1v-.6l.1-.4h-.2V21h-.1v-.4l-.1-.1h-.2v-.1l.4-.3h-.2v-.4h.1l.2-.1h.2v-.1h-.4v-.1l.1-.1-.1-.1v-.1l.1-.4h-.2l.2-.7v-.3h-.1v-.1h.2v-.2l.1-.2V17h-.3v-.1h.1v-.1h-.1v-.1l.1-.1v-.2l.1-.1h.1v-.1L10 16h-.3l.2-.2h.1v-.1h-.1l.2-.1v-.1l-.2.1h-.1v-.1l.1-.1V15l.1-.2v-.2h-.3v-.1h-.3l.4-.4V14l-.2.1h-.1v-.4h.1v-.1h-.1V13h-.3l-.2-.2v-.3l.5-.4-.1-.2-.1.1h-.1v-.2l.1-.3v-.7l-.3-.3-.1-.3.3-.1.1-.3h-.1v-.2h.1v-.2l.2-.2V9l-.2.2H9v-.1l.1-.1v-.2l.1-.2v-.5h-.3L9 8v-.3h-.1v-.1h.3l-.1-.2v-.1L9 7.1h-.3v-.3l.1-.1v-.2h-.2v-.1h-.2L8.3 6l-.2-.1-.1-.1h-.2v-.2l-.2-.2h-.2l.1.2h-.3v.2h-.1l-.1.1-.2.1h-.2v.2h.1l.2-.1L7 6h-.1v.3h-.1l-.3.4v.5l.1.1v.2h.1-.5l-.1.4V8h.4v.1l-.3.3-.2.1v.2l-.2.1v.1l-.1.1v.3l.3-.2h.2l-.1.1-.1.2-.1.1v.1l.1.1v.1l-.1.1h-.2v.4l.1.2h-.2l-.1.1h.1l-.2.2v.3l.3.3-.2.2-.1.4h-.2l.1.2.1.1h.1v.1l-.3.3h-.1l.4.4-.4.4v.4l-.1.2v.2h.2v.1h-.1l-.1.1v.3h.2l-.1.1.1.1H5l-.1.1h-.1l-.1.1v.2h.1v.1h-.2v.1H5v.2l-.1.1-.1.2-.3.3v.1h.2l.1.1-.2.2v.4h.1v.1h-.3l.1.2v.2l-.2.1v.5l.2.1.1.1v.1l-.1.1v.1l-.1.2-.3.3v.1h.3l-.2.4-.1.4h.2l.1.1v.1l-.1.1v.2h-.1l-.1-.1-.1.1v.3h.6l.3.3v.2h-.1l-.1-.1h-.3l.3.3h.2v.2h-.4v.1h-.2l.3-.1-.2.2v.2l-.4.2v.2h.3v.1h.1l.2-.1h.1v.1h-.1l-.2.1-.1.1v.1h-.6v.2l.1.1h.7l-.1.1h-.1l-.1.1-.2.4h.3v.1h-.1v.1l-.2.2v.5h.1L4 25v.3l-.1.1v.2H4v.1l-.4.2v.2h.1v-.2h.1l.2.1v.2l-.2.2v.2H4v.1l-.2.2-.2.1v.4l.2-.1v.2l-.4.4h-.1v.1l-.2.6-.1.5h-.3l-.2.2-.1.2v.1l.1.1v.3l-.4.1V30v.1h-.2v.1h-.1v.1h-.6v-.1l-.1-.1-.1.4v-.1h.1v-.2l.6-.6h.1v-.1h-.3v-.4l.1-.1v-.1l-.2-.1h-.1v-.1h-.1l-.1.3-.1.1H.8l.3-.1h.1l-.2.1-.2-.2v-.2l.1-.1h.2l-.1-.2.1-.2V28H1v-.6l.2-.2V27l.1-.2v-.2h.2v-.1h.1v.4l-.1.1h-.2v.1l.1.1v.3l-.2.4v.6h.1l.2-.2h.1v-.4l.1-.1H2l.2-.4H2v-.3l-.2-.6-.2.1v.1h-.4v-.2l-.1-.1.1-.3.1-.2.1-.1h.1v-.1l-.1-.1v-.3l.1-.2v-.2h.1l-.1-.1.5-.8.1-.1.1-.4-.1-.1.1-.1V23h.1v-.4l.2-.2V22l.1-.3v-.2h.1l-.1-.5h-.1v-.4l-.1-.1.1-.1v-.2h-.1v-.1l.1-.2.1-.1v-.1l-.2-.2v-1l.1-.1h.3v-.2l.1-.2h-.1l-.2-.2v-.1l.2-.1v-.2h-.2v-.2h.3l.1-.1v-.2h-.1l.1-.3.1-.1v-.1h-.2v-.1h.2l-.1-.4v-.2h-.2V15h.1v-.1l.2-.1h.1v-.1h-.7l.5-.3.2-.4.1-.1h.4l.1.1.2.1.1.1v.1h.1V14h.1v-.1h-.1l-.2-.2h-.1l-.4.1h-.6l.2-.1h.2v-.1h-.1l.3-.3v-.1l-.1-.2h-.2l-.1-.2h.1l.1-.2v-.1h-.1v-.3l.1.1h.2v-.5h.2l.3-.1-.2.1v-.1l.1-.1h.2v-.1h-.2l-.1-.5-.1-.1h-.4v-.1h.4l.1-.2v-.2l.2-.2h.2v-.5h-.5l.2-.2h.3l-.1-.1v-.1l.2-.2v-.3h-.2l-.1.3h-.2V9l.1-.1v-.4H4l.1-.1h.2l-.2-.2H4v-.1h.1l.1.1v.3h.1l.1-.1v-.2l-.1-.3-.1-.1.1-.1.2-.1.1.1h.1v-.1l.4-.4L5 7v-.1h-.5v-.1l.1-.1h.2l.1-.1v-.1h-.1.3l.2-.2V6l.1-.1v-.3l.1-.1h.2l.1-.1.2-.3v-.2h-.3V5l-.2.1h-.2V5l.1-.1v-.1l.1.1h.1v-.1h-.2v-.1h.1l.2-.1h.1l.4-.6v-.3l.2-.2h.1v-.3h-.2l.1-.2.1-.1.3-.2.2-.4h.2l-.1-.1h.3l.2-.1.1-.1v-.5H8v-.4l.1-.4m-.5.6h0m2.2.3h.1v.1l-.1-.1m.6 1.2h0M5 5.9h0v.2h-.2l.2-.2m2.7-.1h0M3.8 6.9h0m.4.2h.3l-.1.3-.1.2h-.1v-.5m2.6.1h0l-.1.1h-.2l.1-.1h.2m2.1-.1h0m2-.1h0l.1.1-.1-.1m-6.7.7h0m-.2.5h0m6.2-.4h0m0 0h0m-1.1.5h0m.2 0h0M3.9 10h0m7.2-.5h0m7.9-.4h0m-.1.2h0m-.5.2h0-.1.1M5.9 10.8h0m-.1.1h0m-2.3.4h.2-.4v-.1l.2.1m14.7-1.4h0l-.1.1h-.2v-.1h.3m2.1-.1h0M3.2 11.6h0l.1.1v.1l-.1.1H3l.1-.1h.1v-.2M3 12h0m17.7-1.6h.2v.1l-.2.2-.2.1.1-.1.1-.3m-2.8.3h0m8.3-.5h.3v.4h.2l.2-.1.1-.1h.2l.1-.1v-.1h.1v.1l-.2.1-.1.1h.2v.2l.5.1.1.1h.1v.2h-.1.3l.2.1h-.1l-.1.2v.1h-.1v-.1l-.2.1-.3.5.2.2h1l-.2.1.2.2h.3v.3l-.1.2v.3l.1.1v.1l-.3-.1.3.3v.1h.1l.1.2h-.2l-.1.1v.2h-.1v.1l.3-.1.1-.1v-.1h.1v.4l-.2.2H29v.1l.3.1h.4v.3h-.1v.1l.1.1h.3l.2-.1v-.1l.1-.1V15l.1-.1h.2l-.1-.2v-.1l.1-.1v-.1h.1l.1-.4.1-.2v-.2l.2-.2h.1v-.3h.3l.1.1h.2V13l-.4-.1v-.2l.2-.3.2-.2h.3V12h-.4v-.1l.1-.2.1-.1.1-.2v-.2l.1-.1v-.2l.1-.2.1-.1.2-.3.1-.2.6-.3.2.2v.1l-.1.1v.2h.6l.1-.1h.1v.1h.1l-.1.1-.1-.1h-.6l.1.1h.1v-.1h.5l.5-.1.1-.1h.2l-.2.1-.1.1.1.1.3-.1h.4v.1l-.1.1h-.2l.1.1v.1H35v-.3h-.1l-.1.1v.2h-.1v-.1h-.3v.3h.4l.2-.1h.3l.2-.2h.2v.1h-.2v.1l-.3.1-.1.1h-.2l.2.1h.2l.1-.1h.3l.2-.2h.6l.2 1.1-.1.1v.1h-.2l-.1.1v.2h.4v.1l.1-.1v-.1h.5l-.3.1-.3.3h-.2v.1l-.1.1v.1-.1h1v.1h.4l.1.1 1.2.2h.7l.2.5h-.1l-.2.1h-.2v.1l.2.2h.4l.1-.1h.2l.2-.2h.4v.4h.1l.6-.3h.2l.2-.2h.2v.1l.1.2h.5l.1.1h.2v-.1l-.2.2v.2h.2v.1h.3l.1-.1-.2-.1h-.1.1v.2h.3v-.2l.2-.1v.1h.2v.1h.1l.1-.1.1.1v.1l.3-.1.2-.1.1-.1h.1v.2l-.2.2v.2l.1.1h.1v.1-.1h.1v.2h.3l-.1.1v.2l.6-.6h-.4l-.1.1-.2.1h-.2v-.1l-.5.1v.2-.3l-.2-.1h-.2l.1.1v.2h-.1l-.1-.1h-.2l-.1.1h-.6v-.2l.1-.1h-.1v.3h-.3v-.1h-.1l-.7.4v-.3h-.4l-.1.1h-.1l.1.1v.1h-.2l-.1-.1-.3-.4.1.2-1 .1-.3.1-.4.1-.2.1h-.3l-.3.1v-.2l-.3.2v-.1l-.6.2v-.1h-.1.1l-.1-.1h-.7l.1-.1v-.1h.1v-.1h-.2l-.2-.4h-.2l.1-.1v-.1h.2l-.1-.2h.1l-.1-.1-.4.2H36v-.3l.1-.1h.1v-.1.2l.1-.2v-.1h-.2l-.2.1.1-.3-.1.1v.2h-.1l-.1.1h-.3l-.1-.1h.2l.2-.2h.1l-.1-.1h.2v-.2h-.6l-.1.1h-.1v-.5l-.3.2-.1.1h-.1v-.4h-.2v-.1h-.2l.1-.1v-.1h-.6v-.1h-.1v-.1h.3l-.1-.1h-.6v.1l-.7-.7v.1l-.2.2v.2l-.1.1v.3h-.4l.1.1h.3l-.3.2v.2l-.2.4v.2h-.2v.1h.1l-.1.1h-.2v.3l-.1.5-.1.2h-.2v.2l.1.2-.2.2-.1.2v.3h-.2v.1h-.1l-.1-.1h-.4v.1l-.1-.1-.1.1-.2.1h-.4v-.1l-.1.1-.1-.1h-.2l.3-.4h-.4v-.1l-.2-.2h-.3l-.1-.5.2-.2.1-.2.1-.1v-.1h-.7v.2h-.4l.3-.3v-.1l-.1-.1h-.3l-.1-.1H27h.2v-.1l.4-.4v-.1h-.3l-.2-.1h-.4l.1-.1h-.2l-.1.2v.2h-.1l-.1.1v-.2l-.3-.3.1-.2.1-.1.2-.3-.2-.2H26l-.1.1v.3l-1.1.2-.1-.3h-.1l.1-.1h.3v-.1l-.2-.2v-.1l.1-.1v-.1h.3l.1-.1V12h-.2v-.5l.1-.1.1-.2.3-.3h.7l-.1-.7m1.3.2h0M3.1 12.8h0m.1.1h0m14-1.2h0M2.9 13.1h.2v.1H3l-.1-.1m.5 0h0m-.3 0h0m31.8-2.8v.1h-.1l.1-.1m-23.7 2.3h0m23.2-2.2h0m.3 0h0m.7.4h0l.1.1h-.1v-.1m-7 .7h0M3.2 13.9h0m32.5-3h0m-7.2.7h0l.1.1-.1-.1M3.1 14.2h0m25-2.4h0m.2 0h0m-9 .9h0v.1-.1m9.2-.8h0m7.5-.6h0v.1-.1m-.5 0h0m-18.2 1.9h0v.1-.1m-6.3.7h0m.4.1h0m10.4-.9h0v.1h-.1l.1-.1m14.3-1.4h0l-.1.1.1-.1m-14.7 1.5l.3.1h.2v-.1h-.1.3v.4h-.2l-.2-.1h-.1v.1h.2l-.1.2-.1.1.1.1h.4v-.1h.2v.2h-.2l.2.2v.1l-.3-.1h-.3v.1h.1-.3l.3.1.1.1h.1-.1v.1l.4.2-.1.1h-.1v.1h.1l-.2.1-.1.1h-.1.2l.1-.1h.2v.1l-.3.3-.3.2h-.1v.3h.4l-.1.1.1.1v.1h-.3l-.1.1v.1l.2.1.4-.1h.3l.1.2-.4.1h-.1l-.2.2.4.9v.1h.7l.1-.2.1-.1h.2l.1-.1v-.2l-.1.1h-.2v-.1l.1-.6.2-.3v-1.1h.1v-.3l.2-.2v-.1h-.1.1v-.1h.3l.3.3h.2l-.1.2-.1.1.1.1-.2.1.2.1h.1l.1-.3.1-.2v-.1h.3l-.1-.2h.6v-.1l.3-.3h.1v-.1h.1l.1-.1v-.2h.1v.1l.2.2h.2l-.1.5-.1.1h-.2l-.1.1h-.1v.4h-.4v.2l.2-.1.1.2-.1.1h.1v.3h-.2v.1h.2v.1l-.2.1h-.1l-.1-.1v-.2l-.5-.2.2.2h.2v.2h-.1.2v.2h-.3v.1h.3l-.2.1h-.3v.3h.2v.1H25v.7l-.1.1h-.2l-.2.2-.2.1h-.5v.1h.6v.3l-.1.1h-.1v.4H24l-.3.3h-.2v-.1h-.3v.2h-.1v-.3h-.5v.1l-.2.2h-.1.1l-.1-.1v-.1l.1.1.2-.2h.1v-.1h-.4l-.4.1h.1v.2h-.2v.1h-.2l.2-.4.1-.4h-.1l-.4.2h-.3l-.1-.2v-.2l-.1-.1h.4v-.1h.1v-.1h.1l.3-.4h-.4l-.1.1h-.1v.1l-.2.1-.1-.1h-.1l.2-.4h.5l.2-.2v-.1l-.1-.1h-.3L21 17v-.1l.1-.1v-.1l-.3-.1h-.6v-.1l.2-.1h.1v-.1h.5l.1-.1V16H21v-.1h.2v-.2l-.2.1h-.2v-.1h-.3v-.1l.2-.2h.2l-.3-.1h-.4l-.2.1h-.1v-.1l.1-.1h.2v-.1h-.6v-.2h.7v.1-.1l.5.2.2-.2v-.2h-.5l-.1-.1-.4-.2h.7v-.2h.1l.2.2.1.4H21v.1h.1l.3.1v-.2l.1-.1v-.2l-.1-.2-.1-.1h-.2v-.1h.1l.2-.9m14.8-1.4h0M19 13.6h0m.2 0h0m13.1-1.2h0l.1.1h-.1v-.1M22 13.6h.1v.1l-.1-.1m-10.8 1h0v.1-.1m20.9-1.9h0l.1.1H32l.1-.1m-7.6.7h.3v.1l-.2.2.1.1h-.1v.2l-.2.2h-.1v.1h-.4v-.1l.1-.1h.1l-.1.1h.6l.1-.1-.1-.1h-.3v-.4l.2-.2m1-.1h0M9.8 14.9h0m12.3-1.2h0m3.4-.3h0m11-1.1h0m-11.1 1.2h0l.1.1h.1l.1.1h-.5l.1-.1-.1-.1h.2m-3.4.4h0m15.2-1.4h0m.2 0h0l.1.1h-.1v-.1m-.1.1h0l.1.1-.1-.1m-20.7 2h0m21.3-2h0l.1.2-.1-.2m-12 1.3h0m-.6.1h0m12.4-1.2h0m-.3 0h0m-11.8 1.3h0M37.1 13h0v.1H37l.1-.1m-20.6 2h0m1.8-.2h0m18.6-1.7h0m-14.5 1.5h0l.1.1v.1h-.2v.1-.1l.1-.2m-11 1h0m10.5-.9h0m.3 0h0m3.3-.3h.1l-.2.3-.1.1h-.1v.2H25v-.4h.2v-.1h.1l.2-.1m-3.4.4h0m2.4-.2h0m-.1.1l.1.1h.2v.1l-.3.1v-.3m10.7-1h0M3 16.9h0m1.7-.1h0m14.7-1.4h0v.1-.1m16.7-1.6h0l.1.1-.1-.1m-16.2 1.6h0m.1 0h0m4.8-.5h0m.6 0h0m-3 .3h0m-2.6.3h0m8.3-.8h0l.1.1-.1-.1m-3.4.4h0l-.1.1.1-.1m6.7-.6h0M4.8 17.1h0m36.4-3.4h0M16 16.2h0m9.1-.9h0m-4.8.5h0m-.3.1h0-.2.2m7.9-.8h0M16 16.3h0l.1.1-.1-.1m6.4-.6h0m13.4-1.3h0M19.7 16h0m.7-.1h0m-.7.2h0m23.9-2.2h0m.7 0h0m.5 0h.2v.1h-.1l-.1-.1m-24.4 2.3h0m25-2.3h0m-1.7.3h0v.1-.1m2.6-.2h0l.1.2h-.1V14m.6 0h0l.1.1-.1-.1m.2 0h0l.1.1-.1-.1.1.1h-.1V14m-.7.1h0m-42 4v.1-.1M16 17h0m6.7-.6h0l.1.1h-.1v-.1m24.1-2.3h0v.1-.1M20 16.7h.1v.1l-.1-.1M4.5 18.3h0m18.1-1.8h.1v.1l-.1-.1v.1-.1m23.8-2.2l.1.1v.2h-.3v-.1l.2-.2m.4 0h.2l.2.2h.2l-.2.2v.3h-.1l-.1-.3.2-.2v-.1l-.2-.2-.2.1m-18.2 1.8h.1v.1l-.1-.1m18.6-1.8h0l.1.1-.1-.1m.5 0h0l.1.1-.1-.1.1-.1-.1.1m-27.6 2.6h.2v.1l-.2-.1m2.5-.2h0m-6.7.7h0m4.7-.4h0l-.3.3H20l-.1-.1.1-.1h.1v.1h.1l.4-.2m26.9-2.5h0l.1.1-.1-.1m-18.9 1.8h0m14.1-1.2h0m-1.7.2h0m-10.3 1.1h0m-8.4.9h0M46.7 15h0m-.5.1h0m-1.4.2h0m3.1-.3h0m-18.7 1.8h0m16.3-1.6h0m2.2-.2h.3l-.3.1V15m-1.3.2h0l.1.2h-.1v-.2m1.2-.1h0m-1.4.2h0M4.6 19.2h0v.1-.1m15.7-1.5h.1l.2.2v.1h-.2v-.1l-.1-.1v-.1m-8.8 1.1h0m4.2-.4h0l.1.1v.2l-.1-.1v-.2M4.5 19.6h0l.1.2h-.1v-.2m11.2-.9h0m4.8-.4h0m3.9.3h0m-8.7.9h0m5.1-.4h0m.2.5h0m3.2-.3h0m-8.7.9h0m.1.1h0m6.2-.3h.1l-.1.1h-.1l.1-.1M4.1 23.2h0m.1.1h0m10.8.9h0M1.3 26.3h0m.1.1h0m10.7-1h0m-8.2 1.1h0m12.7-.3h0m-.2 1h0M2.5 29.5h0m10-.6h0m3.5-.2h0l.1.1H16v-.1m0 .2h0M2 30.5h.2v.1l-.2-.1m13.8-1.3h0m-14 1.5h0m.1.1h0m13.4-.2h.1v.1l-.1-.1m-4.5 1h0m4.2.1h.1v.1l-.1.1v-.2m-.7 1.4h0l-.1.1.1-.1m-.4.8h0m-2.1.5h0m.1.2h0"/><path d="M69.8 21.7v-.5h-.1c-1.6 0-1.7-.3-1.7-1.5l-.1-2.7-.1-5.3c0-.5.1-.8.3-.9s.6-.2 1.1-.2h.1V10h-3v.1l-2.9 6.2-1.4 2.9-4.4-9.1h-3v.6h.1c.6 0 .9.1 1.1.2.2.2.3.5.3 1l-.1 4.7-.1 2.1c-.1 2.2-.8 2.4-1.8 2.4H54v.7h4.5v-.6h-.1c-.6 0-1 0-1.3-.3-.2-.2-.3-.6-.3-1.4v-1l.1-5.6.4.9 3.9 8.1v.1h.5v-.1c.1-.4.5-1.2.6-1.6l3.7-7.7.1 7.5c0 .7-.2.9-.4 1-.3.1-.7.1-1.2.1h-.1v.7h5.3l.1-.2zm8.7-5.7a2.99 2.99 0 0 0-1.9-.7c1-.5 2.1-1.5 2.1-2.8 0-1.4-1.1-2.5-2.5-2.5-1.5 0-2.4.9-3.3 1.9l-.1.1.4.5.1-.1c.6-.6 1.2-1.1 2-1.1.5 0 1 .2 1.3.5s.5.8.5 1.4c0 1.5-1.4 2.4-2.8 2.5h-.1v.7h.1c1.2-.1 2 .1 2.5.6.4.4.7 1 .7 1.8 0 1.6-1 2.6-2.5 2.6-1 0-1.4-.5-1.7-.9-.2-.3-.4-.5-.6-.5s-.3.1-.4.2-.2.3-.2.5c0 .6 1 1.5 2.6 1.5 3.3 0 4.6-2.5 4.6-4.1.1-1-.2-1.7-.8-2.1zm10-4.2c0-1.2-.6-1.2-1.5-1.2v-.4h4.7v.4c-.9 0-1.5 0-1.5 1.2v8.4c0 1.2.6 1.2 1.5 1.2v.4H87v-.4c.9 0 1.5 0 1.5-1.2v-8.4zm6 4.6c0-.6-.2-.8-1-1.1V15c.7-.2 1.4-.5 2.2-.8.1 0 .1 0 .1.2v1.1c1-.7 1.8-1.3 2.9-1.3 1.4 0 1.9 1 1.9 2.3v4.3c0 .6.4.6.8.6h.3v.4h-3.6v-.4h.3c.5 0 .8 0 .8-.6v-4.3c0-1-.6-1.4-1.5-1.4-.5 0-1.4.4-1.9.8v4.9c0 .6.4.6.8.6h.4v.4h-3.6v-.4h.3c.5 0 .8 0 .8-.6v-4.4zm15.6 4c0 .7.2.7.8.7h.3v.3c-.3.1-.7.2-1.2.3-.5.2-1 .3-1.1.3-.2 0-.2-.3-.2-.5v-.8c-.6.6-1.5 1.2-2.6 1.2-2 0-3.1-1.8-3.1-3.6 0-2.3 1.8-4.3 4.1-4.3a4.53 4.53 0 0 1 1.6.3v-3c0-1.1-.3-1.1-.9-1.3h0c.7-.2 1.4-.5 1.7-.7.2-.1.3-.2.4-.2s.1.1.1.2l.1 11.1zm-1.3-4.1c0-1.2-1-1.5-1.8-1.5-1.2 0-2.5.9-2.5 3.1 0 1.8 1.1 3.2 2.6 3.2.5 0 1.6-.4 1.6-1v-3.8h.1zm3.9 5.1h.3c.5 0 .8 0 .8-.6v-4.5c0-.7-.3-.8-.9-1.2v-.3c.8-.2 1.7-.6 1.8-.6.1-.1.2-.1.3-.1s.1.1.1.2v6.4c0 .6.4.6.8.6h.3v.4h-3.6l.1-.3zm1.8-9.8c-.4 0-.8-.4-.8-.8s.4-.8.8-.8.8.4.8.8-.3.8-.8.8zm10.3 9.6c-.5.4-1 .9-1.7.9s-1-.6-1-1.2c-.8.7-1.5 1.2-2.6 1.2s-1.8-.7-1.8-1.6c.1-1.3.8-1.6 4.4-2.8v-1.1c0-.9-.6-1.4-1.6-1.4-.7 0-1.2.4-1.3 1.2 0 .5-.5.7-.9.7-.3 0-.3-.2-.3-.3 0-.9.8-1.3 1.9-1.9.6-.3.9-.5 1.5-.5.8 0 2 .5 2 1.4v4.6c0 .7.2 1 .6 1 .2 0 .5-.1.6-.3l.2.1zm-2.7-3.1c-.9.3-3 .7-3 2 0 .7.5 1.2 1.2 1.2.8 0 1.3-.5 1.8-1v-2.2z"/></svg>