<svg xmlns="http://www.w3.org/2000/svg" width="48" height="48"><defs><linearGradient x1="50%" y1="0%" x2="50%" y2="100%" id="A"><stop stop-color="#42e8ff" offset="0%"/><stop stop-color="#1fccfd" offset="100%"/></linearGradient></defs><circle fill="#0c1e51" cx="24" cy="24" r="24"/><path d="M33.714 20.572H32v-2.286a8.01 8.01 0 0 0-8-8 8.01 8.01 0 0 0-8 8v2.286h-1.714a.57.57 0 0 0-.571.571V35.43A2.29 2.29 0 0 0 16 37.715h16a2.29 2.29 0 0 0 2.286-2.286V21.143a.57.57 0 0 0-.571-.571zM25.71 32.51c.018.16-.034.323-.142.444a.57.57 0 0 1-.426.19h-2.286a.57.57 0 0 1-.426-.19c-.108-.12-.16-.283-.142-.444l.36-3.242a2.26 2.26 0 0 1-.935-1.838A2.29 2.29 0 0 1 24 25.143a2.29 2.29 0 0 1 2.286 2.286 2.26 2.26 0 0 1-.935 1.838l.36 3.242zm2.86-11.937h-9.143v-2.286A4.58 4.58 0 0 1 24 13.715a4.58 4.58 0 0 1 4.571 4.571v2.286z" fill="url(#A)"/></svg>