<svg xmlns="http://www.w3.org/2000/svg" width="48" height="48"><defs><linearGradient x1="50%" y1="0%" x2="50%" y2="100%" id="A"><stop stop-color="#42e8ff" offset="0%"/><stop stop-color="#1fccfd" offset="100%"/></linearGradient></defs><circle fill="#0c1e51" cx="24" cy="24" r="24"/><path d="M33.84 16.168c-2.147 0-4.175.84-5.628 2.3L24 22.21l-.007-.008-2.26 2 .015.015-4.018 3.58c-.954.95-2.22 1.475-3.57 1.475a5.06 5.06 0 0 1-5.054-5.054 5.06 5.06 0 0 1 5.054-5.054c1.35 0 2.617.524 3.638 1.542L19.5 22.21l2.25-2-1.886-1.677a8 8 0 0 0-5.695-2.359c-4.443-.008-8.05 3.602-8.05 8.042a8.06 8.06 0 0 0 8.051 8.049c2.147 0 4.167-.84 5.628-2.29L24 26.224l.007.008 2.25-2.007-.007-.008 4.018-3.572a5 5 0 0 1 3.571-1.483 5.06 5.06 0 0 1 5.054 5.054 5.06 5.06 0 0 1-5.054 5.054c-1.35 0-2.617-.524-3.638-1.535L28.5 26.232l-2.25 2.007 1.886 1.677a7.99 7.99 0 0 0 5.688 2.351 8.06 8.06 0 0 0 8.058-8.049 8.06 8.06 0 0 0-8.051-8.049z" fill="url(#A)"/></svg>